<svg xmlns="http://www.w3.org/2000/svg" viewBox="0 0 100 100" class="garden-pot">
  <defs>
    <linearGradient id="potGradient" x1="0%" y1="0%" x2="100%" y2="100%">
      <stop offset="0%" style="stop-color:#8B4513;stop-opacity:1" />
      <stop offset="100%" style="stop-color:#D2691E;stop-opacity:1" />
    </linearGradient>
    <linearGradient id="soilGradient" x1="0%" y1="0%" x2="100%" y2="100%">
      <stop offset="0%" style="stop-color:#6B4226;stop-opacity:1" />
      <stop offset="100%" style="stop-color:#8B5A2B;stop-opacity:1" />
    </linearGradient>
    <linearGradient id="plantGradient" x1="0%" y1="0%" x2="100%" y2="100%">
      <stop offset="0%" style="stop-color:#A3D9A5;stop-opacity:1" />
      <stop offset="100%" style="stop-color:#3A7D44;stop-opacity:1" />
    </linearGradient>
  </defs>
  
  <!-- Pot -->
  <path d="M30,70 L70,70 L65,90 L35,90 Z" fill="url(#potGradient)"/>
  <ellipse cx="50" cy="70" rx="20" ry="3" fill="url(#soilGradient)"/>
  
  <!-- Soil surface -->
  <ellipse cx="50" cy="68" rx="18" ry="2" fill="url(#soilGradient)"/>
  
  <!-- Growing plant -->
  <path d="M50,68 Q45,55 40,45 Q38,40 42,38 Q45,40 48,45" 
        stroke="url(#plantGradient)" 
        stroke-width="2" 
        fill="none">
    <animate attributeName="d" 
             values="M50,68 Q45,65 40,65 Q38,63 42,63 Q45,63 48,65;
                     M50,68 Q45,55 40,45 Q38,40 42,38 Q45,40 48,45;
                     M50,68 Q45,50 40,35 Q38,30 42,28 Q45,30 48,35" 
             dur="3s" 
             repeatCount="indefinite"/>
  </path>
  
  <path d="M50,68 Q55,55 60,45 Q62,40 58,38 Q55,40 52,45" 
        stroke="url(#plantGradient)" 
        stroke-width="2" 
        fill="none">
    <animate attributeName="d" 
             values="M50,68 Q55,65 60,65 Q62,63 58,63 Q55,63 52,65;
                     M50,68 Q55,55 60,45 Q62,40 58,38 Q55,40 52,45;
                     M50,68 Q55,50 60,35 Q62,30 58,28 Q55,30 52,35" 
             dur="3s" 
             repeatCount="indefinite"/>
  </path>
  
  <!-- Leaves -->
  <ellipse cx="38" cy="42" rx="4" ry="6" fill="url(#plantGradient)" transform="rotate(30 38 42)">
    <animate attributeName="ry" values="6;8;6" dur="2s" repeatCount="indefinite"/>
  </ellipse>
  <ellipse cx="62" cy="42" rx="4" ry="6" fill="url(#plantGradient)" transform="rotate(-30 62 42)">
    <animate attributeName="ry" values="6;8;6" dur="2s" repeatCount="indefinite"/>
  </ellipse>
  
  <!-- Small flower -->
  <circle cx="50" cy="35" r="3" fill="#FFB6C1">
    <animate attributeName="r" values="0;3;3" dur="3s" repeatCount="indefinite"/>
  </circle>
  <circle cx="50" cy="35" r="1.5" fill="#FF69B4">
    <animate attributeName="r" values="0;1.5;1.5" dur="3s" repeatCount="indefinite"/>
  </circle>
</svg>
